<svg width="116" height="100" viewBox="0 0 116 100" fill="none" xmlns="http://www.w3.org/2000/svg">
<path d="M48.3333 22.2222H77.3333V27.7777H48.3333V22.2222Z" fill="#545454"/>
<path d="M48.3333 33.3334H77.3333V38.8889H48.3333V33.3334Z" fill="#545454"/>
<path d="M48.3333 44.4445H77.3333V50H48.3333V44.4445Z" fill="#545454"/>
<path d="M48.3333 55.5555H77.3333V61.1111H48.3333V55.5555Z" fill="#545454"/>
<path d="M48.3333 66.6666H77.3333V72.2222H48.3333V66.6666Z" fill="#545454"/>
<path d="M35.4444 22.2222H41.8889V27.7777H35.4444V22.2222Z" fill="#545454"/>
<path d="M35.4444 33.3334H41.8889V38.8889H35.4444V33.3334Z" fill="#545454"/>
<path d="M35.4444 44.4445H41.8889V50H35.4444V44.4445Z" fill="#545454"/>
<path d="M35.4444 55.5555H41.8889V61.1111H35.4444V55.5555Z" fill="#545454"/>
<path d="M35.4444 66.6666H41.8889V72.2222H35.4444V66.6666Z" fill="#545454"/>
<path d="M90.2222 5.55554H25.7778C24.0686 5.55554 22.4294 6.14086 21.2209 7.18273C20.0123 8.22459 19.3333 9.63767 19.3333 11.1111V88.8889C19.3333 90.3623 20.0123 91.7754 21.2209 92.8172C22.4294 93.8591 24.0686 94.4444 25.7778 94.4444H90.2222C91.9314 94.4444 93.5706 93.8591 94.7791 92.8172C95.9877 91.7754 96.6667 90.3623 96.6667 88.8889V11.1111C96.6667 9.63767 95.9877 8.22459 94.7791 7.18273C93.5706 6.14086 91.9314 5.55554 90.2222 5.55554ZM90.2222 88.8889H25.7778V11.1111H90.2222V88.8889Z" fill="#545454"/>
</svg>
