<svg width="116" height="108" viewBox="0 0 116 108" fill="none" xmlns="http://www.w3.org/2000/svg">
<path d="M69.4864 14.2673C69.1627 13.9223 68.7335 13.6776 68.2564 13.5658C67.7792 13.454 67.2768 13.4805 66.8163 13.6417C66.3557 13.8029 65.959 14.0911 65.6791 14.4679C65.3992 14.8446 65.2495 15.2919 65.25 15.75V31.5C65.25 32.6935 65.7592 33.8381 66.6657 34.682C67.5721 35.5259 68.8015 36 70.0833 36H84.5833C85.0479 36.0004 85.5028 35.8761 85.8934 35.6419C86.2841 35.4078 86.594 35.0738 86.786 34.6799C86.978 34.2861 87.044 33.849 86.9761 33.4211C86.9082 32.9932 86.7092 32.5926 86.4031 32.2673L69.4864 14.2673ZM50.1458 51.75H46.5208L48.3333 47.7L50.1458 51.75ZM66.5985 11.25L89.4167 34.6208V90C89.4167 91.7902 88.6528 93.5071 87.2932 94.773C85.9335 96.0388 84.0895 96.75 82.1667 96.75H33.8333C31.9105 96.75 30.0664 96.0388 28.7068 94.773C27.3472 93.5071 26.5833 91.7902 26.5833 90V18C26.5833 16.2098 27.3472 14.4929 28.7068 13.227C30.0664 11.9612 31.9105 11.25 33.8333 11.25H66.5985ZM52.7945 34.2675C52.4274 33.4476 51.8079 32.7473 51.014 32.2546C50.2201 31.762 49.2874 31.4991 48.3333 31.4991C47.3793 31.4991 46.4466 31.762 45.6527 32.2546C44.8588 32.7473 44.2393 33.4476 43.8722 34.2675L31.7888 61.2675C31.2953 62.3691 31.292 63.6081 31.7797 64.7119C32.2673 65.8157 33.206 66.694 34.3892 67.1535C35.5723 67.613 36.9031 67.6161 38.0887 67.162C39.2743 66.708 40.2176 65.8341 40.7112 64.7325L42.4923 60.75H54.1744L55.9555 64.7325C56.449 65.8341 57.3923 66.708 58.578 67.162C59.7636 67.6161 61.0943 67.613 62.2775 67.1535C63.4607 66.694 64.3993 65.8157 64.887 64.7119C65.3747 63.6081 65.3714 62.3691 64.8778 61.2675L64.6289 60.714C64.8319 60.7365 65.0397 60.75 65.25 60.75H67.6667V63C67.6667 64.1935 68.1759 65.3381 69.0823 66.182C69.9887 67.0259 71.2181 67.5 72.5 67.5C73.7819 67.5 75.0113 67.0259 75.9177 66.182C76.8241 65.3381 77.3333 64.1935 77.3333 63V60.75H79.75C81.0319 60.75 82.2613 60.2759 83.1677 59.432C84.0741 58.5881 84.5833 57.4435 84.5833 56.25C84.5833 55.0565 84.0741 53.9119 83.1677 53.068C82.2613 52.2241 81.0319 51.75 79.75 51.75H77.3333V49.5C77.3333 48.3065 76.8241 47.1619 75.9177 46.318C75.0113 45.4741 73.7819 45 72.5 45C71.2181 45 69.9887 45.4741 69.0823 46.318C68.1759 47.1619 67.6667 48.3065 67.6667 49.5V51.75H65.25C63.684 51.75 62.292 52.443 61.4075 53.5185L52.7945 34.2698V34.2675ZM36.25 69.75C34.9681 69.75 33.7387 70.2241 32.8323 71.068C31.9259 71.9119 31.4167 73.0565 31.4167 74.25C31.4167 75.4435 31.9259 76.5881 32.8323 77.432C33.7387 78.2759 34.9681 78.75 36.25 78.75C34.9681 78.75 33.7387 79.2241 32.8323 80.068C31.9259 80.9119 31.4167 82.0565 31.4167 83.25C31.4167 84.4435 31.9259 85.5881 32.8323 86.432C33.7387 87.2759 34.9681 87.75 36.25 87.75H65.25C66.5319 87.7506 67.7615 87.2771 68.6684 86.4336C69.5753 85.5901 70.0851 84.4457 70.0857 83.2523C70.0864 82.0588 69.5778 80.9139 68.6718 80.0696C67.7658 79.2253 66.5367 78.7506 65.2548 78.75H79.75C81.0319 78.75 82.2613 78.2759 83.1677 77.432C84.0741 76.5881 84.5833 75.4435 84.5833 74.25C84.5833 73.0565 84.0741 71.9119 83.1677 71.068C82.2613 70.2241 81.0319 69.75 79.75 69.75H36.25Z" fill="#545454" stroke="#545454" stroke-width="2" stroke-linejoin="round"/>
</svg>
