<svg width="116" height="108" viewBox="0 0 116 108" fill="none" xmlns="http://www.w3.org/2000/svg">
<path d="M72.5 40.5H46.4C45.6309 40.5 44.8932 40.7845 44.3494 41.2908C43.8055 41.7972 43.5 42.4839 43.5 43.2V72M43.5 94.5H72.5H43.5ZM43.5 94.5V72V94.5ZM43.5 94.5H17.4C16.6309 94.5 15.8932 94.2155 15.3494 93.7092C14.8055 93.2028 14.5 92.5161 14.5 91.8V74.7C14.5 73.9839 14.8055 73.2972 15.3494 72.7908C15.8932 72.2845 16.6309 72 17.4 72H43.5V94.5ZM72.5 94.5V40.5V94.5ZM72.5 94.5H98.6C99.3691 94.5 100.107 94.2155 100.651 93.7092C101.194 93.2028 101.5 92.5161 101.5 91.8V16.2C101.5 15.4839 101.194 14.7972 100.651 14.2908C100.107 13.7845 99.3691 13.5 98.6 13.5H75.4C74.6309 13.5 73.8932 13.7845 73.3494 14.2908C72.8055 14.7972 72.5 15.4839 72.5 16.2V40.5V94.5Z" stroke="#545454" stroke-width="1.5"/>
</svg>
