<svg width="116" height="108" viewBox="0 0 116 108" fill="none" xmlns="http://www.w3.org/2000/svg">
<path d="M57.6778 51.9C66.3778 51.9 73.1444 45.3 73.1444 37.2C73.1444 29.1 66.0556 22.8 57.3555 22.8C48.6556 22.8 41.8889 29.4 41.8889 37.2C41.8889 45.3 48.9778 51.9 57.6778 51.9ZM57.3555 28.8001C57.6778 28.8001 57.6778 28.8001 57.3555 28.8001C62.5111 28.8001 66.7 32.7 66.7 37.5C66.7 42.3 62.5111 45.9 57.3555 45.9C52.2 45.9 48.3333 42 48.3333 37.5C48.3333 32.7 52.5222 28.8001 57.3555 28.8001Z" fill="#545454"/>
<path d="M105.367 50.1C99.2445 45 91.1889 42.3 82.8111 42.6H80.2333C79.5889 45 78.6222 47.1 77.3333 48.9C79.2667 48.6 80.8778 48.6 82.8111 48.6C88.9333 48.3 95.0556 50.1 99.8889 53.4V75H106.333V51L105.367 50.1Z" fill="#545454"/>
<path d="M75.4 23.4C77.0111 19.8 81.5222 18 85.7111 19.5C89.5778 21 91.5111 25.2 89.9 29.1C88.6111 31.8 85.7111 33.6 82.8111 33.6C82.1667 33.6 81.2 33.6 80.5556 33.3C80.8778 34.8 80.8778 36.3 80.8778 37.5V39.3C81.5222 39.3 82.1667 39.6 82.8111 39.6C90.8667 39.6 97.3111 33.6 97.3111 26.4C97.3111 18.9 90.8667 12.9 83.1333 12.9C77.9778 12.9 73.4667 15.3 70.8889 19.5C72.5 20.4 74.1111 21.6 75.4 23.4Z" fill="#545454"/>
<path d="M38.6667 49.2001C37.3778 47.4001 36.4111 45.3001 35.7667 42.9001H33.1889C24.8111 42.6001 16.7556 45.3001 10.6334 50.1001L9.66669 51.0001V75.0001H16.1111V53.4001C21.2667 50.1001 27.0667 48.3001 33.1889 48.6001C35.1222 48.6001 37.0556 48.9001 38.6667 49.2001Z" fill="#545454"/>
<path d="M33.1889 39.3C33.8334 39.3 34.4778 39.3 35.1222 39V37.2C35.1222 35.7 35.1222 34.2 35.4445 33C34.8 33.3 33.8334 33.3 33.1889 33.3C29 33.3 25.4556 30 25.4556 26.1C25.4556 22.2 29 18.9 33.1889 18.9C36.4111 18.9 39.3111 20.7 40.6 23.4C41.8889 21.9 43.8222 20.4 45.4334 19.2C41.2445 12.9 32.5445 10.8 25.7778 14.7C19.0111 18.6 16.7556 26.7 20.9445 33C23.5222 36.9 28.0334 39.3 33.1889 39.3Z" fill="#545454"/>
<path d="M84.1 68.1L83.4556 67.2C77.0111 60.6 67.9889 56.7 58.3222 57C48.6556 56.7 39.3111 60.6 32.8667 67.2L32.2222 68.1V90.9C32.2222 93.6 34.4778 96 37.7 96H78.9445C81.8444 96 84.4222 93.6 84.4222 90.9V68.1H84.1ZM77.6556 90H38.6667V70.2C43.8222 65.4 50.9111 63 58.3222 63C65.4111 62.7 72.5 65.4 77.6556 70.2V90Z" fill="#545454"/>
</svg>
